<svg viewBox="0 0 1120 480" xmlns="http://www.w3.org/2000/svg" shape-rendering="geometricPrecision" fill-rule="evenodd" clip-rule="evenodd" role="img" aria-label="Porto Design">
    <path d="M586.08 204.49V38.61c0-9.06-7.4-16.45-16.45-16.45H16.45C7.4 22.16 0 29.55 0 38.61v71.29c0 9.06 7.4 16.45 16.45 16.45h113.8v78.14c0 125.68 98.97 221.4 227.91 221.4s227.92-95.72 227.92-221.4m-355.56 0v-78.14H485.8v78.14c0 71.63-49.5 121.13-127.64 121.13s-127.64-49.5-127.64-121.13" fill="#272320" fill-rule="nonzero"></path>
    <path d="M1094.01 204.49V38.61c0-9.06-7.4-16.45-16.45-16.45H654.63c-9.06 0-16.46 7.39-16.46 16.45v165.88c0 125.68 98.98 221.4 227.92 221.4s227.92-95.72 227.92-221.4m-355.56 0v-78.14h255.27v78.14c0 71.63-49.5 121.13-127.63 121.13-78.14 0-127.64-49.5-127.64-121.13" fill="#272320" fill-rule="nonzero"></path>
</svg>
