<?xml version="1.0" encoding="UTF-8"?>
<svg xmlns="http://www.w3.org/2000/svg" xml:space="preserve" version="1.1"
  style="shape-rendering:geometricPrecision; fill-rule:evenodd; clip-rule:evenodd"
  viewBox="0 0 80 113">
  <style>.fil0 {fill:white;fill-rule:nonzero}</style>
  <path class="fil0" d="M48.26 62.36c0,-4.13 -3.38,-7.59 -7.52,-7.59l-33.15 0c-4.21,0 -7.59,3.38 -7.59,7.52l0 8.19 0 14.51c0,4.43 3.61,8.04 8.04,8.04l0 -22.55 0 -8.12 40.22 0zm-46.78 48.44l0 -4.02 0 -2.01 54.83 0 0 2.01 0 4.02 -54.83 0zm29.69 -110.79l4.02 0 2.01 0 0 6.03 0 12.07 -2.01 0 -4.02 0 0 15.32 0 0 0 6.03 -2.01 0 -4.02 0 0 9.28 -2.01 0 -4.02 0 0 -15.32 4.02 0 2.01 0 0 -15.32 0 -6.03 4.02 0 2.01 0 0 -6.03 -0 0 0 -6.03zm16.17 24.13l0 6.03 -2.01 0 -4.02 0 0 9.28 -2.01 0 -4.02 0 0 -15.32 4.02 0 2.01 0 0 -18.1 4.02 0 2.01 0 0 18.1zm-26.23 -2.78l0 0 0 6.03 -2.01 0 -4.02 0 0 9.28 -2.01 0 -4.02 0 0 -15.32 4.02 0 2.01 0 0 -15.32 4.02 0 2.01 0 0 15.32zm50.51 65.62l0 -0.55 0 -15.92 -15.32 0 0 16.49 15.32 0 0 -0.02zm0 -16.47c3.34,0 6.03,2.7 6.03,6.03l0 10.46c0,3.34 -2.7,6.03 -6.03,6.03l-15.32 0c0,4.13 -3.38,7.52 -7.52,7.52l-40.74 0 0 -7.52 40.22 0 0 -22.55 0 -8.12 0 -0.08 8.04 0 0 2.19 15.32 0 0 2.01 0 4.02z"/>
</svg>
