<svg preserveAspectRatio="xMidYMid meet" viewBox="0 0 5685.101 479.8" xmlns="http://www.w3.org/2000/svg" shape-rendering="geometricPrecision" text-rendering="geometricPrecision" image-rendering="optimizeQuality" fill-rule="evenodd" clip-rule="evenodd" role="img" aria-label="Porto Design">
    <g>
        <path d="M4145.01 425.9c-86.29 0-154.84-67.14-154.84-153.77s68.55-153.76 154.84-153.76c86.09 0 154.31 67.46 154.31 153.76S4231.1 425.9 4145.01 425.9m0-51.35c57.46 0 101.35-45.26 101.35-102.42 0-57.15-43.89-102.43-101.35-102.43-57.38 0-101.88 45.2-101.88 102.43 0 57.24 44.5 102.42 101.88 102.42" fill="#8f8f8f"></path>
        <path d="M3904.77 176.19v162.96c0 10.62.53 25.06 11.84 29.85 12.94 5.48 41.04 2.5 54.87 1.28l13.82-1.22v49.1l-10.78 1.64c-66.62 10.17-122.71-2.15-122.71-80.65V176.19h-29.73v-51.88h29.73V59.95l52.96-15.58v79.94h80.53v51.88z" fill="#8f8f8f"></path>
        <path d="M3698.31 152.69c19.91-19.18 46.56-28.38 77.56-28.38h12.7v51.35h-12.7c-51.18 0-77.56 35.3-77.56 85.12v159.17h-52.43V124.31h52.43z" fill="#8f8f8f"></path>
        <path d="M3452.12 425.9c-86.3 0-154.84-67.14-154.84-153.77s68.54-153.76 154.84-153.76c86.08 0 154.31 67.46 154.31 153.76S3538.2 425.9 3452.12 425.9m0-51.35c57.46 0 101.34-45.26 101.34-102.42 0-57.15-43.88-102.43-101.34-102.43-57.38 0-101.89 45.2-101.89 102.43 0 57.24 44.51 102.42 101.89 102.42" fill="#8f8f8f"></path>
        <path d="M3079.46 275.64v144.31h-54.05V16.21h141.33c74.52 0 130.53 55.37 130.53 129.99 0 74.41-56.35 129.44-130.53 129.44zm0-207.01v154.59h87.28c44.96 0 76.48-32.24 76.48-77.02 0-44.98-31.19-77.57-76.48-77.57z" fill="#8f8f8f"></path>
        <path fill="#8f8f8f" d="M2765.44 419.95V0h52.43v419.95z"></path>
        <path d="M2484.51 298.88c10.87 46.79 49.68 75.67 99.6 75.67 32.42 0 66.14-12.93 82.35-42.58l6.31-11.5 46.11 27.24-6.62 10.97c-27.29 45.29-76.99 67.22-128.69 67.22-89.31 0-154.85-64.21-154.85-153.77 0-87.87 64.36-153.76 152.69-153.76 86.7 0 146.2 70.96 146.2 154.84 0 4.34-.55 8.66-.55 12.97v12.7zm-.25-51.89h187.88c-9.14-44.84-42.22-77.29-90.73-77.29-49.65 0-87.24 30.86-97.15 77.29" fill="#8f8f8f"></path>
        <path fill="#8f8f8f" d="M2336.84 419.95V124.31h52.42v295.64z"></path>
        <path d="M2363.05 84.31c-18.89 0-34.32-15.42-34.32-34.31 0-18.67 15.73-33.79 34.32-33.79 18.58 0 34.32 15.11 34.32 33.79 0 18.9-15.42 34.31-34.32 34.31" fill="#8f8f8f"></path>
        <path d="M2084.43 149.74c21.82-21.01 50.56-31.37 84.05-31.37 72.35 0 117.55 49.43 117.55 120.79v180.79h-52.96V239.16c0-42.76-23.07-69.46-66.75-69.46-56.69 0-81.89 41.49-81.89 94.86v155.39h-52.42V124.31h52.42z" fill="#8f8f8f"></path>
        <path d="M1921.2 384.03c-26.85 27.03-63.37 41.87-103.49 41.87-85.44 0-152.69-68.45-152.69-153.77s67.25-153.76 152.69-153.76c40.12 0 76.64 14.84 103.49 41.86v-35.92h52.97v295.64h-52.97zm-101.34-9.48c57.46 0 101.34-45.26 101.34-102.42 0-57.15-43.88-102.43-101.34-102.43-57.38 0-101.88 45.2-101.88 102.43 0 57.24 44.5 102.42 101.88 102.42" fill="#8f8f8f"></path>
        <path d="M1450.72 16.21c112.82 0 191.06 92.16 191.06 201.87 0 109.72-78.25 201.87-191.06 201.87h-154.85V16.21zm-100.8 52.42v298.9h100.8c83.98 0 137.55-68.89 137.55-149.45 0-80.54-53.57-149.45-137.55-149.45z" fill="#8f8f8f"></path>
        <path d="M586.08 204.49V38.61c0-9.06-7.4-16.45-16.45-16.45H16.45C7.4 22.16 0 29.55 0 38.61v71.29c0 9.06 7.4 16.45 16.45 16.45h113.8v78.14c0 125.68 98.97 221.4 227.91 221.4s227.92-95.72 227.92-221.4m-355.56 0v-78.14H485.8v78.14c0 71.63-49.5 121.13-127.64 121.13s-127.64-49.5-127.64-121.13" fill="#8f8f8f" fill-rule="nonzero"></path>
        <path d="M1094.01 204.49V38.61c0-9.06-7.4-16.45-16.45-16.45H654.63c-9.06 0-16.46 7.39-16.46 16.45v165.88c0 125.68 98.98 221.4 227.92 221.4s227.92-95.72 227.92-221.4m-355.56 0v-78.14h255.27v78.14c0 71.63-49.5 121.13-127.63 121.13-78.14 0-127.64-49.5-127.64-121.13" fill="#8f8f8f" fill-rule="nonzero"></path>
        <path d="M4580.64 402.92c-13.98 13.04-32.47 20.15-52.79 20.15-45.82 0-81.66-36.47-81.66-82.22 0-45.76 35.83-82.22 81.66-82.22 20.32 0 38.81 7.11 52.79 20.15v-73.76h30.57v214.93h-30.57zm156.72-46.51c6.13 22.76 25.5 36.66 50.31 36.66 16.43 0 33.65-6.49 41.88-21.54l4.06-7.43 26.9 15.88-4.26 7.08c-14.62 24.22-41.19 36.01-68.86 36.01-47.71 0-82.79-34.38-82.79-82.22 0-46.95 34.46-82.22 81.65-82.22 46.34 0 78.26 37.92 78.26 82.79 0 2.28-.29 4.53-.29 6.8v8.19zm240.04-49.32c0 27.4 85.95 9.63 85.95 67.51 0 32.2-29.72 48.47-58.97 48.47-25.99 0-51.91-11.08-61.55-36.8l-2.43-6.48 26.87-15.64 3.19 9.57c4.78 14.36 20.02 19.35 33.92 19.35 11.73 0 28.4-3.82 28.4-18.47 0-28.13-85.94-10.34-85.94-67.51 0-30.85 27.67-48.46 56.41-48.46 23.72 0 45.85 10.98 55.71 33.24l2.99 6.76-26.48 15.12-3.52-8.7c-4.73-11.72-16.76-16.43-28.7-16.43-11.47 0-25.85 4.87-25.85 18.47m213.02-82.82c0 10.76-8.77 19.54-19.54 19.54s-19.53-8.78-19.53-19.54c0-10.65 8.94-19.25 19.53-19.25 10.6 0 19.54 8.6 19.54 19.25m-34.82 195.68V261.74h30.56v158.21zm259.54-17.03c-13.97 13.03-32.47 20.15-52.79 20.15-45.83 0-81.66-36.47-81.66-82.22s35.82-82.22 81.66-82.22c20.32 0 38.82 7.12 52.79 20.15v-17.04h30.56v143.21c0 46.14-34.08 74.85-78.82 74.85-29.53 0-60.45-10.55-74.28-38.61l-3.42-6.94 26.78-15.18 3.83 7.81c8.89 18.12 28.36 22.92 47.09 22.92 28.8 0 48.26-15.12 48.26-44.85zm164.16-129.75c11.38-9.73 25.9-14.54 42.58-14.54 38.82 0 63.22 26.62 63.22 64.92v96.4h-30.85v-96.4c0-21.61-11.44-34.93-33.5-34.93-28.89 0-41.45 21.11-41.45 48.26v83.07h-30.56V261.74h30.56zm-1050.6 119.9c29.27 0 51.94-23.03 51.94-52.22s-22.66-52.23-51.94-52.23c-29.27 0-51.94 23.04-51.94 52.23s22.67 52.22 51.94 52.22m208.49-66.94h94.78c-5.16-21.87-21.66-37.51-45.72-37.51-24.67 0-43.42 14.87-49.06 37.51m626.01 66.94c29.27 0 51.94-23.03 51.94-52.22s-22.67-52.23-51.94-52.23c-29.28 0-51.95 23.03-51.95 52.23 0 29.19 22.68 52.22 51.95 52.22" fill="#8f8f8f"></path>
    </g>
</svg>
